<svg xmlns="http://www.w3.org/2000/svg" viewBox="0 0 1600 700">
<defs>
<linearGradient id="dusk" x1="0" y1="0" x2="0" y2="1">
 <stop offset="0" stop-color="#0A120E"/><stop offset="0.7" stop-color="#123c2b"/>
 <stop offset="1" stop-color="#1d5c40"/>
</linearGradient>
<linearGradient id="wall" x1="0" y1="0" x2="0" y2="1">
 <stop offset="0" stop-color="#0e4d35"/><stop offset="1" stop-color="#082b1e"/>
</linearGradient>
<pattern id="weave" width="46" height="46" patternUnits="userSpaceOnUse" patternTransform="rotate(45)">
 <rect width="46" height="46" fill="none"/>
 <rect width="2.5" height="46" fill="#C6A45C" opacity="0.28"/>
 <rect x="23" width="1.5" height="46" fill="#C6A45C" opacity="0.16"/>
</pattern>
<linearGradient id="pond" x1="0" y1="0" x2="0" y2="1">
 <stop offset="0" stop-color="#0d3624"/><stop offset="1" stop-color="#061510"/>
</linearGradient>
</defs>
<rect width="1600" height="700" fill="url(#dusk)"/>
<rect x="330" y="150" width="940" height="360" fill="url(#wall)"/>
<rect x="330" y="150" width="940" height="360" fill="url(#weave)"/>
<rect x="330" y="144" width="940" height="10" fill="#aab0b6"/>
<rect x="330" y="154" width="940" height="3" fill="#C6A45C"/>
<rect x="742" y="330" width="116" height="180" fill="#04120c"/>
<rect x="748" y="336" width="104" height="174" fill="#C6A45C" opacity="0.14"/>
<rect x="796" y="336" width="8" height="174" fill="#ffe9b8" opacity="0.85"/>
<rect x="700" y="316" width="200" height="10" fill="#8f959b"/>
<rect x="360" y="200" width="4" height="240" fill="#2BD08C" opacity="0.18"/>
<rect x="420" y="200" width="4" height="240" fill="#2BD08C" opacity="0.18"/>
<rect x="480" y="200" width="4" height="240" fill="#2BD08C" opacity="0.18"/>
<rect x="540" y="200" width="4" height="240" fill="#2BD08C" opacity="0.18"/>
<rect x="600" y="200" width="4" height="240" fill="#2BD08C" opacity="0.18"/>
<rect x="660" y="200" width="4" height="240" fill="#2BD08C" opacity="0.18"/>
<rect x="900" y="200" width="4" height="240" fill="#2BD08C" opacity="0.18"/>
<rect x="960" y="200" width="4" height="240" fill="#2BD08C" opacity="0.18"/>
<rect x="1020" y="200" width="4" height="240" fill="#2BD08C" opacity="0.18"/>
<rect x="1080" y="200" width="4" height="240" fill="#2BD08C" opacity="0.18"/>
<rect x="1140" y="200" width="4" height="240" fill="#2BD08C" opacity="0.18"/>
<rect x="1200" y="200" width="4" height="240" fill="#2BD08C" opacity="0.18"/>
<ellipse cx="1556" cy="398" rx="97" ry="77" fill="#051710" opacity="0.92"/>
<ellipse cx="64" cy="422" rx="100" ry="80" fill="#051710" opacity="0.92"/>
<ellipse cx="18" cy="388" rx="78" ry="62" fill="#051710" opacity="0.92"/>
<ellipse cx="16" cy="435" rx="45" ry="36" fill="#051710" opacity="0.92"/>
<ellipse cx="1501" cy="494" rx="60" ry="48" fill="#051710" opacity="0.92"/>
<ellipse cx="240" cy="192" rx="47" ry="37" fill="#051710" opacity="0.92"/>
<ellipse cx="67" cy="283" rx="43" ry="34" fill="#051710" opacity="0.92"/>
<ellipse cx="1437" cy="385" rx="65" ry="52" fill="#051710" opacity="0.92"/>
<ellipse cx="297" cy="310" rx="103" ry="82" fill="#051710" opacity="0.92"/>
<ellipse cx="309" cy="203" rx="98" ry="78" fill="#051710" opacity="0.92"/>
<ellipse cx="1478" cy="442" rx="50" ry="40" fill="#051710" opacity="0.92"/>
<ellipse cx="1431" cy="277" rx="105" ry="84" fill="#051710" opacity="0.92"/>
<ellipse cx="1285" cy="195" rx="53" ry="42" fill="#051710" opacity="0.92"/>
<ellipse cx="1325" cy="308" rx="89" ry="71" fill="#051710" opacity="0.92"/>
<ellipse cx="-22" cy="510" rx="40" ry="32" fill="#051710" opacity="0.92"/>
<ellipse cx="77" cy="186" rx="100" ry="80" fill="#051710" opacity="0.92"/>
<ellipse cx="1473" cy="374" rx="49" ry="39" fill="#051710" opacity="0.92"/>
<ellipse cx="315" cy="298" rx="83" ry="66" fill="#051710" opacity="0.92"/>
<ellipse cx="129" cy="330" rx="41" ry="32" fill="#051710" opacity="0.92"/>
<ellipse cx="1330" cy="228" rx="71" ry="56" fill="#051710" opacity="0.92"/>
<ellipse cx="-25" cy="190" rx="99" ry="79" fill="#051710" opacity="0.92"/>
<ellipse cx="1360" cy="509" rx="64" ry="51" fill="#051710" opacity="0.92"/>
<ellipse cx="1530" cy="257" rx="56" ry="44" fill="#051710" opacity="0.92"/>
<ellipse cx="1599" cy="356" rx="54" ry="43" fill="#051710" opacity="0.92"/>
<ellipse cx="1485" cy="268" rx="40" ry="32" fill="#051710" opacity="0.92"/>
<ellipse cx="1573" cy="315" rx="42" ry="33" fill="#051710" opacity="0.92"/>
<rect x="0" y="510" width="1600" height="190" fill="url(#pond)"/>
<rect x="330" y="514" width="940" height="120" fill="#0e4d35" opacity="0.25"/>
<rect x="796" y="514" width="8" height="120" fill="#ffe9b8" opacity="0.3"/>
<line x1="330" y1="520" x2="1270" y2="520" stroke="#040906" stroke-width="2" opacity="0.5"/>
<line x1="330" y1="533" x2="1270" y2="533" stroke="#040906" stroke-width="2" opacity="0.5"/>
<line x1="330" y1="546" x2="1270" y2="546" stroke="#040906" stroke-width="2" opacity="0.5"/>
<line x1="330" y1="559" x2="1270" y2="559" stroke="#040906" stroke-width="2" opacity="0.5"/>
<line x1="330" y1="572" x2="1270" y2="572" stroke="#040906" stroke-width="3" opacity="0.5"/>
<line x1="330" y1="585" x2="1270" y2="585" stroke="#040906" stroke-width="3" opacity="0.5"/>
<line x1="330" y1="598" x2="1270" y2="598" stroke="#040906" stroke-width="3" opacity="0.5"/>
<line x1="330" y1="611" x2="1270" y2="611" stroke="#040906" stroke-width="3" opacity="0.5"/>
<line x1="330" y1="624" x2="1270" y2="624" stroke="#040906" stroke-width="4" opacity="0.5"/>
<line x1="330" y1="637" x2="1270" y2="637" stroke="#040906" stroke-width="4" opacity="0.5"/>
<line x1="330" y1="650" x2="1270" y2="650" stroke="#040906" stroke-width="4" opacity="0.5"/>
<line x1="330" y1="663" x2="1270" y2="663" stroke="#040906" stroke-width="4" opacity="0.5"/>
<line x1="330" y1="676" x2="1270" y2="676" stroke="#040906" stroke-width="5" opacity="0.5"/>
<line x1="330" y1="689" x2="1270" y2="689" stroke="#040906" stroke-width="5" opacity="0.5"/>
</svg>